<svg width="600" height="600" xmlns="http://www.w3.org/2000/svg">
  <defs>
    <style>
      .blob {
        fill: rgba(234, 171, 0, 0.08);
        stroke: rgba(234, 171, 0, 0.15);
        stroke-width: 0.8;
        vector-effect: non-scaling-stroke;
      }
    </style>
  </defs>
  
  <!-- Subtle, nonchalant small blobs -->
  
  <!-- Small scattered blobs -->
  <path class="blob" d="M120,150 Q140,140 160,150 Q180,160 170,180 Q160,200 140,190 Q120,180 120,165 Q120,157 120,150 Z" />
  <path class="blob" d="M280,120 Q300,110 320,120 Q340,130 330,150 Q320,170 300,160 Q280,150 280,135 Q280,127 280,120 Z" />
  <path class="blob" d="M450,180 Q470,170 490,180 Q510,190 500,210 Q490,230 470,220 Q450,210 450,195 Q450,187 450,180 Z" />
  <path class="blob" d="M180,280 Q200,270 220,280 Q240,290 230,310 Q220,330 200,320 Q180,310 180,295 Q180,287 180,280 Z" />
  <path class="blob" d="M380,250 Q400,240 420,250 Q440,260 430,280 Q420,300 400,290 Q380,280 380,265 Q380,257 380,250 Z" />
  <path class="blob" d="M520,320 Q540,310 560,320 Q580,330 570,350 Q560,370 540,360 Q520,350 520,335 Q520,327 520,320 Z" />
  <path class="blob" d="M150,380 Q170,370 190,380 Q210,390 200,410 Q190,430 170,420 Q150,410 150,395 Q150,387 150,380 Z" />
  <path class="blob" d="M320,420 Q340,410 360,420 Q380,430 370,450 Q360,470 340,460 Q320,450 320,435 Q320,427 320,420 Z" />
  <path class="blob" d="M480,480 Q500,470 520,480 Q540,490 530,510 Q520,530 500,520 Q480,510 480,495 Q480,487 480,480 Z" />
  
  <!-- Slightly larger but still subtle blobs -->
  <path class="blob" d="M200,200 Q230,185 260,200 Q290,215 275,245 Q260,275 230,260 Q200,245 200,220 Q200,210 200,200 Z" />
  <path class="blob" d="M400,300 Q430,285 460,300 Q490,315 475,345 Q460,375 430,360 Q400,345 400,320 Q400,310 400,300 Z" />
  <path class="blob" d="M250,450 Q280,435 310,450 Q340,465 325,495 Q310,525 280,510 Q250,495 250,470 Q250,460 250,450 Z" />
  
  <!-- Very subtle medium blobs -->
  <path class="blob" d="M100,300 Q150,280 200,300 Q250,320 220,370 Q190,420 140,400 Q100,380 100,340 Q100,320 100,300 Z" />
  <path class="blob" d="M350,150 Q400,130 450,150 Q500,170 470,220 Q440,270 390,250 Q350,230 350,190 Q350,170 350,150 Z" />
  <path class="blob" d="M500,400 Q550,380 600,400 Q600,450 550,480 Q500,510 450,490 Q420,470 500,430 Q500,415 500,400 Z" />
</svg>
